#!OML:ASF F:\VICON\USERDATA\INSTALL\rory3\rory3.ASF
:FULLY-SPECIFIED
:DEGREES
326
root -0.0275441 17.8928 -3.00321 1.29436 0.850893 -0.334714
lowerback 5.49907 2.0839 -3.30367
upperback 0.354147 2.65495 2.72716
thorax -2.99939 1.38702 4.465
lowerneck -15.6473 -5.55535 -15.2745
upperneck 29.6099 -5.72733 7.07548
head 13.2603 -3.32536 4.46567
rclavicle 1.41137e-014 -1.03368e-014
rhumerus -32.0254 -17.8491 -70.4708
rradius 34.4736
rwrist -15.002
rhand -12.2944 15.695
rfingers 7.12502
rthumb 13.7733 -13.8291
lclavicle 1.41137e-014 -1.03368e-014
lhumerus -40.2548 14.1883 79.4529
lradius 27.2313
lwrist -9.90265
lhand 1.55929 31.8775
lfingers 7.12502
lthumb 27.083 59.955
rfemur -0.439126 0.441032 20.4876
rtibia 54.149
rfoot 24.4385 -7.21351
rtoes 29.5041
lfemur -23.4479 -2.83196 -21.4014
ltibia 32.571
lfoot -5.52772 -8.36755
ltoes 12.3219
327
root -0.00505957 17.8991 -2.82476 1.13254 0.914036 0.225899
lowerback 5.59455 2.00624 -3.82444
upperback 0.444639 2.51273 2.62443
thorax -2.96242 1.31968 4.66428
lowerneck -15.6786 -5.54536 -15.3826
upperneck 29.6207 -5.67918 7.08601
head 13.2702 -3.31517 4.49637
rclavicle 1.38155e-014 -1.11319e-014
rhumerus -32.0948 -17.9021 -70.4228
rradius 34.1265
rwrist -15.0121
rhand -12.3472 15.4972
rfingers 7.12502
rthumb 13.7224 -14.0304
lclavicle 1.38155e-014 -1.11319e-014
lhumerus -40.2023 14.0118 79.5552
lradius 27.2671
lwrist -9.84755
lhand 1.53497 31.9456
lfingers 7.12502
lthumb 27.0598 60.0267
rfemur -2.05262 0.0946555 19.6917
rtibia 56.7139
rfoot 23.4215 -8.45987
rtoes 28.2065
lfemur -22.5209 -3.28273 -22.1777
ltibia 32.4923
lfoot -6.1768 -7.64415
ltoes 11.5197
328
root 0.0244602 17.8959 -2.64126 0.880691 1.13196 0.935033
lowerback 5.81476 1.82951 -4.38178
upperback 0.530061 2.22845 2.4485
thorax -2.9801 1.18224 4.81762
lowerneck -15.8562 -5.56051 -15.3601
upperneck 29.7141 -5.63828 6.94861
head 13.3377 -3.31252 4.44436
rclavicle -2.78795e-014 -1.11319e-014
rhumerus -32.2002 -17.628 -70.5878
rradius 34.0532
rwrist -15.0703
rhand -12.3173 15.5352
rfingers 7.12502
rthumb 13.7512 -13.9904
lclavicle -2.78795e-014 -1.11319e-014
lhumerus -40.2321 13.7387 79.6081
lradius 27.2469
lwrist -9.68318
lhand 1.76845 32.2295
lfingers 7.12502
lthumb 27.2831 60.2757
rfemur -3.33592 -0.676887 18.604
rtibia 59.1033
rfoot 19.8182 -9.36456
rtoes 20.6838
lfemur -21.4093 -3.8889 -23.1883
ltibia 32.3975
lfoot -7.01101 -6.94792
ltoes 9.69729
329
root 0.0506341 17.8861 -2.45914 0.616847 1.35003 1.59828
lowerback 6.01316 1.68458 -4.93463
upperback 0.578676 1.98672 2.31796
thorax -3.02678 1.0679 5.01348
lowerneck -15.7819 -5.49701 -15.255
upperneck 29.7328 -5.50093 6.66909
head 13.2989 -3.27803 4.33734
rclavicle -3.18055e-015 7.95139e-015
rhumerus -32.3476 -17.6403 -70.5521
rradius 33.7674
rwrist -14.8625
rhand -12.3886 15.5395
rfingers 7.12502
rthumb 13.6825 -13.9907
lclavicle -3.18055e-015 7.95139e-015
lhumerus -40.2706 13.5647 79.6758
lradius 27.184
lwrist -9.69712
lhand 1.75104 32.0805
lfingers 7.12502
lthumb 27.2665 60.1293
rfemur -4.45725 -1.49031 17.5948
rtibia 61.3202
rfoot 17.7894 -9.55398
rtoes 21.0181
lfemur -20.2861 -4.37279 -24.1487
ltibia 32.2923
lfoot -7.81199 -6.48346
ltoes 7.6361
330
root 0.0656648 17.8846 -2.28056 0.415662 1.53259 1.93603
lowerback 6.14582 1.58276 -5.26025
upperback 0.626641 1.8219 2.27774
thorax -3.03969 0.988784 5.16999
lowerneck -15.6059 -5.30243 -15.059
upperneck 29.7147 -5.22811 6.43256
head 13.201 -3.1683 4.2561
rclavicle -2.08724e-014 1.03368e-014
rhumerus -32.4844 -17.7447 -70.4751
rradius 33.4608
rwrist -14.5409
rhand -12.4838 15.6118
rfingers 7.12502
rthumb 13.5907 -13.9246
lclavicle -2.08724e-014 1.03368e-014
lhumerus -40.202 13.4564 79.6939
lradius 27.229
lwrist -10.0507
lhand 1.77992 31.9871
lfingers 7.12502
lthumb 27.2941 60.0316
rfemur -5.69742 -2.13586 17.1157
rtibia 63.3777
rfoot 13.9669 -9.42258
rtoes 16.9191
lfemur -19.2905 -4.6823 -24.6579
ltibia 32.1852
lfoot -8.58209 -6.2275
ltoes 6.6485
331
root 0.0772689 17.8875 -2.10218 0.187255 1.6432 2.13319
lowerback 6.32874 1.49552 -5.47848
upperback 0.724351 1.68222 2.27352
thorax -3.02864 0.91899 5.30091
lowerneck -15.7528 -5.13079 -14.9181
upperneck 29.8402 -4.96125 6.31976
head 13.2397 -3.05117 4.23434
rclavicle 2.25124e-014 1.98785e-014
rhumerus -32.4579 -17.9382 -70.4319
rradius 32.9982
rwrist -14.148
rhand -12.4411 15.9433
rfingers 7.12502
rthumb 13.6319 -13.5903
lclavicle 2.25124e-014 1.98785e-014
lhumerus -39.8845 13.3971 79.6748
lradius 26.9834
lwrist -10.5345
lhand 1.84217 31.8496
lfingers 7.12502
lthumb 27.3536 59.8847
rfemur -7.0291 -2.72837 16.8411
rtibia 65.2538
rfoot 12.814 -10.0828
rtoes 20.5616
lfemur -18.3131 -4.8189 -24.9751
ltibia 32.0804
lfoot -9.22385 -6.16682
ltoes 7.27253
332
root 0.0989923 17.8867 -1.92801 -0.0149944 1.72171 2.49431
lowerback 6.55115 1.41817 -5.79071
upperback 0.719209 1.54375 2.23399
thorax -3.14741 0.857484 5.44733
lowerneck -15.6902 -5.03505 -14.8776
upperneck 29.9633 -4.80912 6.20009
head 13.2537 -3.00007 4.20892
rclavicle 1.67973e-014 -8.74653e-015
rhumerus -32.5304 -18.243 -70.2527
rradius 32.3321
rwrist -13.6375
rhand -12.3252 16.4986
rfingers 7.12502
rthumb 13.7436 -13.0275
lclavicle 1.67973e-014 -8.74653e-015
lhumerus -39.7149 13.2712 79.7056
lradius 26.6561
lwrist -10.8517
lhand 1.87528 31.6952
lfingers 7.12502
lthumb 27.3853 59.7253
rfemur -8.46056 -3.39365 16.2604
rtibia 66.9276
rfoot 10.7165 -10.2336
rtoes 19.2653
lfemur -17.3542 -4.96256 -25.5138
ltibia 31.99
lfoot -9.75707 -6.15071
ltoes 8.46406
